<?xml version="1.0" standalone="no"?>
<!DOCTYPE svg PUBLIC "-//W3C//DTD SVG 20010904//EN"
 "http://www.w3.org/TR/2001/REC-SVG-20010904/DTD/svg10.dtd">
<svg version="1.0" xmlns="http://www.w3.org/2000/svg"
 width="512.000000pt" height="512.000000pt" viewBox="0 0 512.000000 512.000000"
 preserveAspectRatio="xMidYMid meet">
<metadata>
Created by potrace 1.14, written by Peter Selinger 2001-2017
</metadata>
<g transform="translate(0.000000,512.000000) scale(0.100000,-0.100000)"
fill="#000000" stroke="none">
<path d="M2407 4904 c-1 -1 -38 -5 -82 -9 -87 -6 -131 -11 -185 -20 -19 -3
-48 -8 -65 -10 -16 -2 -45 -9 -64 -14 -19 -6 -37 -9 -39 -6 -3 3 -11 0 -19 -7
-7 -6 -16 -8 -20 -5 -3 4 -12 2 -20 -5 -7 -6 -16 -8 -20 -5 -3 3 -18 0 -34 -9
-16 -8 -31 -14 -34 -14 -11 1 -91 -24 -102 -33 -7 -5 -17 -6 -23 -2 -5 3 -10
2 -10 -3 0 -8 -21 -17 -60 -27 -3 0 -21 -8 -40 -17 -19 -10 -42 -18 -50 -20
-8 -2 -21 -10 -28 -18 -12 -13 -13 -13 -6 0 6 11 2 10 -13 -3 -11 -9 -23 -14
-26 -10 -4 3 -7 1 -7 -5 0 -11 -38 -28 -53 -24 -5 1 -6 -2 -3 -7 4 -5 -7 -12
-24 -16 -16 -4 -30 -10 -30 -14 0 -3 -17 -15 -37 -26 -21 -11 -40 -22 -43 -25
-12 -13 -65 -43 -68 -39 -2 2 -8 -4 -13 -13 -6 -10 -14 -18 -19 -18 -6 0 -18
-8 -28 -17 -33 -31 -72 -63 -72 -58 0 3 -13 -9 -28 -25 -16 -16 -32 -27 -35
-23 -4 3 -7 -2 -7 -12 0 -10 -2 -16 -5 -13 -7 6 -162 -148 -221 -219 -22 -25
-47 -53 -56 -62 -10 -8 -18 -20 -18 -25 0 -5 -11 -19 -26 -32 -14 -13 -23 -24
-20 -24 6 0 -73 -121 -97 -150 -6 -8 -10 -15 -9 -15 8 0 -22 -55 -30 -55 -5 0
-7 -4 -3 -9 3 -5 1 -12 -5 -16 -5 -3 -10 -13 -10 -22 0 -8 -9 -28 -21 -44 -11
-16 -18 -29 -15 -29 3 0 -5 -24 -18 -52 -20 -46 -42 -114 -65 -198 -7 -27 -5
-196 3 -245 6 -40 29 -98 41 -107 7 -5 7 -8 0 -8 -5 0 -5 -4 2 -8 6 -4 13 -14
15 -22 5 -23 148 -158 187 -176 78 -37 115 -39 663 -39 295 0 534 -3 532 -7
-3 -4 -7 -70 -9 -145 -5 -146 -11 -249 -20 -323 -10 -89 -17 -145 -21 -165 -2
-11 -7 -33 -10 -50 -2 -16 -7 -41 -9 -55 -3 -14 -8 -36 -11 -50 -3 -14 -6 -33
-6 -42 1 -10 -4 -18 -9 -18 -6 0 -8 -4 -5 -9 5 -8 -49 -204 -62 -226 -4 -5 -7
-14 -7 -20 -1 -5 -4 -17 -7 -25 -4 -8 -18 -49 -33 -90 -14 -41 -28 -82 -32
-90 -3 -8 -7 -17 -7 -20 -1 -3 -5 -11 -9 -17 -5 -7 -6 -13 -2 -13 3 0 -1 -16
-9 -35 -8 -19 -13 -35 -11 -35 2 0 -2 -15 -10 -34 -8 -18 -12 -36 -9 -38 2 -3
0 -17 -5 -30 -21 -55 -31 -321 -16 -430 9 -60 35 -135 70 -194 34 -59 200
-224 224 -224 5 0 11 -4 13 -8 3 -8 131 -73 143 -73 2 0 25 -8 50 -19 25 -11
46 -19 48 -18 1 1 25 -4 52 -10 103 -24 134 -28 255 -38 275 -21 552 2 739 61
44 14 82 25 83 24 2 -1 27 13 56 30 29 17 56 31 61 31 4 0 16 9 26 20 10 11
22 20 27 20 22 0 175 170 203 226 17 32 33 61 38 62 4 2 5 7 2 12 -3 5 -1 20
5 35 15 40 22 108 22 230 0 61 -1 110 -2 110 -1 0 -3 20 -6 44 -7 73 -32 178
-58 250 -9 24 -13 47 -10 52 3 5 1 9 -4 9 -5 0 -12 10 -15 23 -5 24 -25 80
-39 112 -4 11 -10 29 -12 40 -3 11 -12 37 -20 58 -9 20 -13 37 -10 37 4 0 2 6
-3 12 -8 11 -23 59 -39 131 -1 4 -2 8 -4 10 -2 2 -4 14 -13 57 -3 14 -12 59
-21 100 -14 72 -17 91 -31 190 -17 128 -26 273 -28 435 -1 66 -5 122 -9 126
-4 3 236 5 535 4 298 0 556 4 572 9 17 4 48 16 70 26 22 9 44 19 50 21 12 5
132 123 129 127 -1 2 6 12 17 23 10 10 19 26 19 35 0 8 4 13 8 10 4 -2 9 5 9
17 1 12 7 23 13 25 5 2 8 8 4 13 -3 5 -2 15 3 22 12 19 14 36 15 147 0 111 -4
148 -21 193 -6 15 -8 27 -5 27 4 0 1 7 -6 15 -6 8 -9 18 -6 24 3 5 2 11 -4 13
-5 1 -11 13 -13 25 -1 11 -9 28 -16 37 -7 8 -10 20 -6 26 3 5 1 10 -4 10 -6 0
-10 3 -9 8 0 4 -6 24 -16 44 -9 21 -16 41 -15 44 0 4 -4 10 -9 13 -10 7 -43
67 -41 77 0 4 -3 10 -8 13 -13 10 -64 91 -57 91 4 0 -3 8 -14 19 -12 10 -19
21 -15 25 3 3 1 6 -5 6 -7 0 -12 5 -12 10 0 6 -10 21 -22 34 -13 13 -32 36
-43 52 -11 15 -30 38 -43 51 -13 13 -21 23 -19 23 3 0 -44 50 -105 110 -60 61
-112 110 -114 110 -3 0 -11 6 -18 13 -8 7 -33 29 -56 48 -23 18 -48 40 -55 47
-8 6 -16 12 -20 12 -6 0 -23 13 -56 43 -10 9 -21 16 -23 15 -3 -2 -17 8 -33
22 -15 13 -30 24 -33 23 -12 -1 -50 21 -50 30 0 6 -3 8 -6 4 -3 -3 -24 5 -45
19 -21 13 -43 24 -49 24 -5 0 -10 5 -10 11 0 5 -4 8 -9 5 -5 -3 -19 3 -32 13
-13 10 -30 16 -36 14 -7 -3 -13 0 -13 6 0 6 -3 10 -7 9 -5 -1 -26 7 -48 17
-22 10 -47 19 -55 21 -8 2 -23 7 -35 13 -28 14 -127 45 -146 47 -9 1 -22 5
-30 10 -7 4 -20 9 -29 10 -16 3 -52 11 -60 14 -3 1 -8 2 -11 2 -4 -1 -22 3
-40 9 -19 5 -52 12 -74 15 -66 9 -89 12 -115 18 -49 12 -504 29 -513 20z"/>
</g>
</svg>
